<?xml version="1.0" encoding="UTF-8"?>
<!-- Gear sticker (footer cursor trail): the Definica mechanisms at work. -->
<svg xmlns="http://www.w3.org/2000/svg" viewBox="0 0 100 100">
  <path d="M84.7 45.43L93.91 47.24L93.91 52.76L84.7 54.57L82.34 63.39L89.41 69.56L86.65 74.35L77.77 71.31L71.31 77.77L74.35 86.65L69.56 89.41L63.39 82.34L54.57 84.7L52.76 93.91L47.24 93.91L45.43 84.7L36.61 82.34L30.44 89.41L25.65 86.65L28.69 77.77L22.23 71.31L13.35 74.35L10.59 69.56L17.66 63.39L15.3 54.57L6.09 52.76L6.09 47.24L15.3 45.43L17.66 36.61L10.59 30.44L13.35 25.65L22.23 28.69L28.69 22.23L25.65 13.35L30.44 10.59L36.61 17.66L45.43 15.3L47.24 6.09L52.76 6.09L54.57 15.3L63.39 17.66L69.56 10.59L74.35 13.35L71.31 22.23L77.77 28.69L86.65 25.65L89.41 30.44L82.34 36.61Z" fill="#d1f500" stroke="#001405" stroke-width="2.6" stroke-linejoin="round"/>
  <circle cx="50" cy="50" r="17" fill="#ffffff" stroke="#001405" stroke-width="2.6"/>
  <g transform="translate(41.6 41.2) scale(0.79)">
    <path fill-rule="evenodd" clip-rule="evenodd" d="M9.12705 0.252278C10.8655 0.252278 12.4782 0.553437 13.9651 1.15575C15.4519 1.73576 16.7444 2.56116 17.8424 3.63194C18.9632 4.68042 19.8325 5.91851 20.4501 7.34622C21.0677 8.75163 21.3765 10.2909 21.3765 11.964C21.3765 13.6148 21.0677 15.154 20.4501 16.5817C19.8325 18.0095 18.9747 19.2587 17.8767 20.3295C16.7787 21.378 15.4862 22.2034 13.9994 22.8057C12.5125 23.3857 10.9113 23.6757 9.19568 23.6757H1.78138C0.797549 23.6757 0 22.869 0 21.8739V2.05408C0 1.05897 0.797549 0.252278 1.78138 0.252278H9.12705ZM9.38556 5.45784L3.9263 11.3478C3.6051 11.6944 3.6051 12.2336 3.9263 12.5801L4.48495 13.1829L5.90247 14.7122L9.38556 18.4701C9.73745 18.8498 10.3333 18.8498 10.6851 18.4701L16.1444 12.5801C16.4656 12.2336 16.4656 11.6944 16.1444 11.3478L15.6535 10.8182L14.236 9.28886L10.6851 5.45784C10.3333 5.07819 9.73745 5.07819 9.38556 5.45784Z" fill="#001405"/>
  </g>
</svg>
